<?xml version="1.0" standalone="no"?>
<!DOCTYPE svg PUBLIC "-//W3C//DTD SVG 20010904//EN"
 "http://www.w3.org/TR/2001/REC-SVG-20010904/DTD/svg10.dtd">
<svg version="1.0" xmlns="http://www.w3.org/2000/svg"
 width="1280.000000pt" height="1255.000000pt" viewBox="0 0 1280.000000 1255.000000"
 preserveAspectRatio="xMidYMid meet">
<metadata>
Created by potrace 1.15, written by Peter Selinger 2001-2017
</metadata>
<g transform="translate(0.000000,1255.000000) scale(0.100000,-0.100000)"
fill="#ffffff" stroke="none">
<path d="M6901 12454 c-122 -252 -131 -433 -33 -629 19 -38 48 -89 64 -112
l30 -41 -51 -64 c-63 -77 -101 -154 -101 -204 0 -42 -10 -37 -30 16 -7 19 -37
72 -66 117 l-53 82 24 43 c75 135 95 299 55 452 -20 75 -109 281 -117 272 -3
-3 7 -68 22 -146 36 -186 33 -317 -11 -427 -15 -40 -32 -73 -36 -73 -9 0 -42
74 -69 155 -32 94 -36 250 -10 417 11 76 21 143 20 150 -1 26 -62 -139 -85
-231 -46 -181 -26 -368 57 -533 l31 -61 -36 -51 c-52 -74 -89 -113 -93 -99 -2
6 -30 49 -62 95 -83 119 -84 123 -67 150 25 39 64 153 77 223 19 112 -11 249
-93 428 -23 48 -43 85 -45 83 -3 -2 7 -65 21 -139 40 -207 34 -365 -20 -469
l-16 -32 -18 47 c-50 132 -57 281 -21 486 12 68 20 125 18 127 -6 6 -64 -144
-89 -232 -18 -63 -23 -104 -23 -204 0 -116 3 -132 33 -215 18 -49 35 -97 38
-105 3 -9 -31 -60 -87 -130 -122 -151 -146 -188 -169 -256 -36 -104 -18 -218
50 -320 l27 -41 -23 -27 c-33 -37 -39 -69 -24 -122 10 -36 24 -54 64 -85 111
-86 125 -99 128 -127 5 -41 33 -36 31 6 -1 35 -2 35 152 129 43 27 57 59 51
123 l-6 55 38 -45 c20 -25 66 -75 101 -113 35 -37 62 -69 60 -71 -2 -1 -33
-18 -68 -37 -42 -22 -71 -45 -84 -67 l-20 -33 -293 3 -293 3 -28 26 c-15 15
-60 43 -99 62 -61 31 -79 46 -124 107 -29 39 -54 70 -55 68 -2 -2 -6 -21 -9
-43 -8 -50 -39 -97 -127 -191 -38 -42 -69 -79 -69 -85 0 -13 -427 -12 -435 1
-5 8 -11 7 -21 -1 -11 -9 -16 -6 -23 12 -13 35 -58 73 -121 104 -30 15 -67 38
-82 52 l-26 25 49 62 c28 33 64 90 82 126 29 58 32 73 32 155 0 119 -20 163
-153 329 -56 71 -107 137 -113 147 -7 14 -4 36 11 81 25 75 26 185 4 272 -16
61 -93 240 -101 232 -2 -2 6 -50 18 -107 25 -117 29 -276 9 -324 l-12 -30 -15
33 c-50 119 -56 258 -18 448 14 69 25 133 24 142 0 9 -18 -19 -40 -63 -117
-241 -129 -429 -39 -623 l30 -64 -43 -58 c-23 -32 -68 -89 -99 -127 -134 -162
-148 -266 -56 -418 l39 -66 -48 -55 c-67 -76 -84 -111 -77 -154 9 -46 37 -76
108 -112 81 -41 126 -86 126 -127 l0 -31 -148 0 c-102 0 -152 4 -160 12 -9 9
-15 9 -24 -1 -10 -9 -12 -122 -10 -512 3 -462 2 -502 -13 -520 -16 -17 -17
-29 -7 -135 6 -64 17 -123 24 -132 17 -20 123 -68 171 -77 36 -7 37 -8 37 -51
l0 -44 -141 0 -141 0 6 28 c14 59 19 222 8 222 -9 0 -13 138 -14 512 l-3 512
-162 -3 c-160 -3 -163 -2 -163 19 0 39 28 87 71 121 23 19 60 50 81 70 37 35
38 39 38 102 0 62 -3 70 -45 129 -61 87 -85 133 -94 181 l-7 42 -35 -85 c-30
-71 -43 -90 -79 -115 -82 -58 -120 -100 -120 -134 0 -55 28 -103 100 -170 l70
-66 -11 -48 -11 -48 -136 3 c-76 2 -145 7 -154 12 -17 8 -18 -20 -18 -513 0
-382 -3 -521 -11 -521 -8 0 -10 -36 -7 -125 l5 -126 -293 1 c-200 1 -302 5
-324 13 -29 11 -34 10 -51 -12 -20 -25 -19 -42 7 -96 7 -16 34 -172 59 -345
24 -173 81 -565 125 -870 44 -305 105 -728 136 -940 41 -290 59 -391 73 -410
22 -32 106 -82 193 -118 37 -15 68 -30 68 -34 0 -5 -108 -8 -241 -8 l-241 0
50 55 c54 59 85 127 97 211 5 40 3 53 -9 64 -14 11 -19 10 -34 -4 -16 -14 -57
-16 -344 -16 -277 0 -327 2 -338 15 -39 47 -59 -9 -36 -102 18 -74 43 -119
100 -181 l39 -43 -278 1 c-180 1 -281 -2 -288 -9 -7 -7 -7 -27 1 -63 12 -49
342 -3099 342 -3149 -1 -21 -17 -32 -125 -83 -166 -79 -264 -144 -361 -240
-100 -100 -137 -170 -142 -269 -3 -52 1 -82 18 -128 12 -34 20 -62 18 -63 -1
-2 -37 -11 -78 -21 -41 -10 -167 -48 -280 -85 -411 -136 -690 -284 -868 -461
-224 -223 -228 -456 -11 -684 657 -691 3191 -1041 5289 -729 325 48 707 127
934 193 l99 29 141 -35 c1027 -251 2406 -322 3631 -188 1259 138 2203 475
2467 879 131 202 93 406 -115 602 -194 184 -520 347 -962 480 -82 24 -150 46
-152 48 -2 2 14 30 36 62 54 82 75 150 68 226 -15 170 -177 339 -464 486 -68
34 -93 52 -93 66 0 10 27 244 60 520 32 275 114 962 180 1526 66 564 122 1033
124 1042 2 9 -2 25 -8 34 -11 14 -37 16 -224 15 -117 -1 -212 1 -212 4 0 3 9
24 20 46 25 47 44 141 35 169 -7 21 -39 27 -50 10 -9 -14 -675 -14 -675 1 0 6
-10 9 -22 7 -21 -3 -23 -8 -21 -61 1 -37 11 -78 27 -114 15 -30 26 -57 26 -59
0 -2 -93 -4 -206 -4 l-206 0 70 36 c132 68 95 -88 328 1375 112 706 211 1305
220 1332 15 43 15 49 0 72 -17 25 -50 33 -61 15 -4 -6 -97 -10 -247 -10 l-240
0 6 33 c3 17 8 71 12 119 6 77 5 88 -10 94 -16 6 -17 46 -15 516 l1 510 -271
-1 -271 -2 4 106 c3 87 1 107 -11 112 -8 3 -19 1 -26 -6 -7 -7 -87 -11 -257
-11 l-247 0 4 73 c5 80 2 88 -78 205 -74 107 -71 125 6 46 37 -38 53 -51 36
-29 -63 78 -130 187 -152 243 -32 82 -31 187 3 268 29 69 86 157 145 224 l40
44 70 -104 c84 -126 95 -146 122 -229 26 -80 29 -205 5 -239 -8 -12 -47 -38
-85 -58 -85 -42 -112 -79 -106 -141 6 -58 25 -84 112 -149 55 -41 77 -65 83
-88 11 -43 37 -41 37 4 0 31 5 37 55 66 179 104 191 155 68 289 -80 88 -91
110 -77 157 15 53 10 141 -11 210 -13 43 -51 112 -115 208 -52 80 -94 147 -93
150 2 3 24 48 50 100 105 212 98 374 -27 635 -24 49 -44 84 -44 78 -1 -7 11
-73 25 -145 21 -109 25 -153 22 -248 -4 -101 -8 -125 -37 -197 -18 -46 -36
-85 -41 -88 -18 -11 -42 93 -47 210 -4 94 -1 149 16 251 27 167 26 174 -10 85
-66 -163 -82 -236 -82 -371 0 -107 4 -136 26 -205 30 -92 36 -77 -72 -205
-176 -209 -194 -361 -67 -549 l52 -76 -27 -65 c-31 -74 -54 -100 -124 -144
-32 -20 -57 -45 -68 -68 l-19 -38 -287 0 -287 0 -11 43 c-17 63 -46 93 -127
131 -53 26 -87 50 -120 88 -25 29 -46 56 -46 60 0 5 20 35 45 69 76 104 89
140 90 254 0 85 -3 106 -22 142 -13 23 -23 45 -23 49 0 4 10 -1 23 -12 57 -50
57 -43 -1 18 -66 71 -112 154 -112 203 0 17 8 48 18 69 l18 39 16 -24 c8 -13
48 -62 88 -109 39 -47 83 -104 96 -127 22 -37 24 -46 15 -80 -18 -64 -13 -143
14 -208 14 -33 25 -66 25 -74 0 -25 -70 -146 -122 -211 l-51 -65 52 50 c29 28
75 78 103 113 29 34 54 62 57 61 3 0 25 -24 47 -53 34 -42 40 -56 32 -70 -6
-10 -8 -40 -6 -68 6 -57 22 -77 120 -149 48 -36 68 -58 73 -79 12 -54 48 -48
37 6 -5 29 4 38 104 93 39 22 75 48 78 57 6 15 14 11 53 -27 l47 -44 -42 51
c-34 42 -42 60 -42 92 0 41 -15 67 -78 134 -31 33 -35 44 -39 105 -8 115 40
226 160 371 141 169 192 257 222 380 22 92 16 228 -15 322 -23 70 -105 250
-114 250 -3 0 -4 -6 -1 -12 2 -7 15 -73 29 -146 59 -303 18 -455 -194 -720
l-85 -107 -7 68 c-5 50 -16 84 -43 135 -20 37 -40 71 -45 76 -4 4 7 34 25 65
88 150 110 306 67 469 -20 75 -110 287 -119 279 -2 -2 8 -64 22 -137 27 -144
33 -285 16 -363 -14 -60 -71 -188 -81 -182 -16 10 -50 132 -56 196 -4 38 0
110 10 178 9 63 14 116 12 118 -8 8 -56 -155 -67 -228 -15 -94 -1 -194 38
-281 l25 -57 -23 -33 c-32 -46 -160 -203 -168 -205 -7 -2 -144 171 -187 236
l-28 44 85 81 c144 137 184 213 177 339 -3 52 -12 89 -31 132 -30 63 -87 158
-93 152 -2 -1 8 -48 22 -102 49 -193 22 -292 -121 -443 l-80 -85 -18 43 c-28
65 -49 195 -42 265 4 33 17 117 31 188 13 70 24 130 24 135 0 4 -14 -17 -30
-46 -45 -82 -87 -200 -106 -296 -21 -104 -11 -196 32 -302 23 -58 24 -67 11
-82 -27 -31 -41 -67 -47 -117 l-6 -50 -47 73 c-130 196 -151 327 -98 605 15
81 26 147 25 147 -2 0 -19 -30 -38 -67 -164 -326 -139 -557 90 -833 165 -199
212 -299 201 -429 -6 -78 -53 -195 -74 -187 -8 4 -13 -2 -13 -17 0 -25 -13
-47 -74 -122 l-40 -50 49 45 c58 53 44 32 -43 -67 l-64 -73 -262 0 -263 0 -54
58 c-83 86 -109 125 -117 173 l-7 43 -37 -50 c-20 -27 -47 -59 -61 -72 l-24
-23 -37 45 c-41 50 -112 163 -126 202 -8 19 -4 34 19 72 51 83 65 137 66 252
l0 106 64 77 c35 42 67 74 72 71 17 -10 78 -124 105 -196 50 -135 31 -291 -55
-436 -16 -28 -37 -64 -47 -79 l-16 -28 26 30 c52 58 144 204 165 261 12 32 25
86 28 122 l6 64 29 -54 c16 -30 63 -90 104 -134 77 -81 86 -83 25 -4 -19 25
-48 74 -65 110 -40 85 -41 168 -2 254 26 60 92 156 105 156 10 0 91 -104 119
-153 35 -61 62 -152 62 -209 0 -110 -35 -166 -136 -216 -76 -38 -114 -81 -114
-128 0 -62 24 -99 102 -157 85 -63 95 -73 100 -107 5 -37 34 -33 31 5 -3 37
18 60 82 92 79 40 104 61 114 100 16 58 3 88 -76 175 -40 45 -71 87 -69 93 46
101 58 143 58 204 0 109 -37 187 -154 323 l-50 58 40 60 c46 68 79 149 94 229
16 91 -7 197 -74 344 -23 48 -43 86 -44 84 -2 -2 7 -59 21 -128 40 -201 31
-282 -47 -432 l-41 -79 -18 23 c-37 48 -88 156 -108 229 -29 104 -27 204 8
380 16 80 28 146 26 148 -1 2 -21 -36 -44 -84z m-622 -928 c34 -52 64 -101 67
-110 3 -8 -12 -50 -33 -92 -35 -72 -38 -84 -38 -163 0 -74 4 -95 29 -149 16
-34 26 -66 22 -70 -5 -4 -34 21 -67 55 -40 43 -63 77 -72 109 l-13 46 -42 -56
c-34 -45 -101 -96 -126 -96 -8 0 -36 93 -42 141 -8 58 17 155 59 232 31 57
176 245 188 246 4 1 34 -41 68 -93z m1929 -3 c61 -130 56 -232 -20 -373 -29
-53 -29 -54 -4 -25 l26 30 0 -62 c0 -51 -4 -66 -26 -92 -32 -38 -153 -104
-168 -91 -6 5 -24 33 -40 63 l-29 55 23 54 c29 67 37 168 18 224 -13 36 -13
45 0 70 23 44 166 224 178 224 3 0 22 -35 42 -77z m-3727 -189 c163 -199 194
-337 116 -507 -19 -41 -39 -77 -45 -81 -6 -3 -24 13 -41 36 -25 34 -31 38 -31
21 0 -12 -3 -29 -6 -38 -6 -14 -8 -13 -21 5 -8 11 -45 36 -83 55 -54 27 -79
48 -112 92 l-43 56 -6 -36 c-8 -53 -14 -54 -33 -5 -54 134 -21 239 139 432
l70 84 20 -22 c11 -13 45 -54 76 -92z m1908 -236 c-6 -32 -16 -58 -20 -58 -15
0 -10 91 9 154 l17 61 3 -50 c2 -27 -2 -76 -9 -107z m-1586 -835 l5 -153 -99
0 -100 0 3 62 3 62 70 53 c41 31 78 69 90 92 11 21 21 38 21 37 1 0 4 -70 7
-153z m1754 29 c21 -15 37 -39 43 -64 14 -48 36 -45 33 5 -2 29 3 39 30 60 30
23 130 77 142 77 3 0 5 -47 5 -105 l0 -105 -180 0 -180 0 0 106 0 106 38 -28
c20 -15 52 -39 69 -52z m1283 35 c0 -24 3 -78 6 -120 l7 -77 -118 0 -117 0 7
38 c3 20 17 48 30 61 29 30 167 139 178 140 4 1 7 -19 7 -42z m806 -68 c3 -5
2 -34 -1 -64 l-7 -55 -59 0 -59 0 0 116 0 116 60 -52 c33 -29 63 -56 66 -61z
m-2873 -31 l4 -118 -119 0 -120 0 7 38 c3 20 16 47 28 59 33 33 192 151 194
144 1 -3 3 -59 6 -123z m1765 48 c55 -34 61 -45 55 -98 l-6 -48 -54 0 -55 0 4
85 c2 47 6 85 11 85 4 0 24 -11 45 -24z m1199 -66 l1 -70 -34 0 c-39 0 -41 8
-19 70 15 43 32 70 44 70 3 0 7 -32 8 -70z m-3228 6 c9 -11 10 -25 2 -52 -6
-20 -8 -41 -5 -46 3 -4 -2 -8 -10 -8 -13 0 -16 12 -16 60 0 60 8 72 29 46z
m451 -1021 c30 -8 97 -15 148 -15 l92 0 0 -109 c0 -88 -3 -110 -15 -115 -8 -3
-15 -12 -15 -21 0 -13 -19 -15 -120 -15 l-120 0 0 30 c0 18 -6 33 -15 36 -12
5 -15 27 -15 115 0 60 1 109 3 109 1 0 27 -7 57 -15z m1198 -5 l92 0 0 -90 c0
-72 -3 -90 -14 -90 -10 0 -16 -14 -18 -42 l-3 -43 -97 -3 c-84 -2 -98 0 -98
13 0 9 -7 18 -15 21 -12 5 -15 29 -15 129 l0 123 38 -9 c20 -5 79 -9 130 -9z
m-2153 -55 c33 -8 81 -14 108 -15 l47 0 0 -63 c0 -35 -4 -67 -10 -73 -5 -5
-11 -21 -13 -34 -4 -25 -6 -25 -110 -28 l-107 -3 0 51 c0 27 -4 50 -10 50 -6
0 -10 30 -10 71 0 69 1 71 23 64 12 -3 49 -13 82 -20z m3057 -16 c27 -6 91
-10 148 -7 l100 4 0 -27 c0 -15 -7 -29 -15 -33 -11 -4 -15 -22 -15 -71 l0 -65
-135 0 -135 0 0 45 c0 33 -4 45 -15 45 -12 0 -15 14 -15 66 0 58 2 65 18 60 9
-3 38 -10 64 -17z m1198 -113 c0 -13 3 -38 6 -55 l7 -31 -112 0 -111 0 0 43 0
42 63 3 c34 2 78 7 97 12 19 4 38 8 43 9 4 1 7 -10 7 -23z"/>
<path d="M5360 12383 c-28 -90 -34 -122 -33 -197 1 -120 25 -194 108 -331 36
-59 65 -109 65 -112 0 -13 -146 -207 -205 -271 -10 -11 -27 5 -87 80 -42 51
-94 122 -117 157 l-40 63 89 87 c115 111 156 189 154 296 -1 47 -8 88 -22 123
-22 52 -101 186 -108 180 -2 -2 8 -46 21 -98 35 -132 34 -217 -4 -295 -32 -68
-147 -208 -164 -202 -7 2 -20 30 -29 63 -25 89 -22 225 7 374 14 69 25 132 24
140 0 23 -63 -105 -100 -205 -30 -84 -33 -98 -33 -220 0 -111 3 -138 21 -184
l22 -54 -26 -31 c-14 -17 -36 -52 -48 -79 -22 -47 -23 -47 -37 -25 -114 174
-138 347 -85 608 14 68 25 126 23 127 -2 2 -25 -45 -53 -104 -71 -153 -88
-217 -87 -343 1 -170 50 -280 215 -477 57 -68 106 -139 132 -192 41 -82 42
-88 42 -181 0 -93 -1 -99 -42 -181 -23 -46 -65 -113 -94 -149 l-52 -65 67 65
c57 56 66 61 66 41 0 -39 28 -74 109 -133 57 -42 79 -65 86 -90 12 -39 30 -35
31 6 0 34 25 56 105 97 79 39 102 71 97 131 -4 39 -13 56 -56 104 -35 38 -49
61 -42 68 6 6 23 -5 47 -35 64 -75 126 -140 130 -135 2 2 -14 28 -36 57 -23
30 -54 79 -70 109 l-30 56 25 67 c26 74 31 151 13 222 -9 36 -8 47 7 71 26 41
96 132 139 179 l36 40 -4 -66 c-4 -53 -13 -83 -45 -145 -38 -72 -39 -76 -12
-45 16 19 48 71 70 115 35 70 41 90 41 146 1 53 7 77 34 130 58 115 70 164 69
285 -1 92 -6 123 -28 190 -30 88 -104 251 -111 244 -2 -3 7 -60 20 -128 33
-167 39 -253 25 -331 -12 -67 -48 -177 -60 -185 -9 -6 -97 142 -125 212 -46
114 -51 196 -23 381 6 40 9 75 6 77 -3 3 -20 -43 -38 -102z m-319 -787 c35
-43 90 -112 122 -154 58 -75 59 -76 50 -121 -14 -80 -8 -162 18 -226 24 -58
27 -95 9 -95 -5 0 -15 21 -23 46 l-13 47 -38 -51 c-32 -44 -89 -92 -110 -92
-3 0 3 18 14 39 11 22 25 71 31 108 12 67 5 109 -28 193 -6 13 -4 13 13 0 10
-8 2 5 -19 30 -137 166 -144 180 -138 260 2 31 32 102 41 98 4 -2 36 -38 71
-82z"/>
<path d="M5851 12444 c-1 -6 10 -71 24 -144 62 -326 17 -471 -241 -785 -93
-113 -125 -180 -131 -274 -4 -62 -1 -87 16 -132 32 -84 91 -170 181 -262 l81
-82 -49 66 c-137 185 -168 300 -118 442 31 86 68 143 178 276 93 110 165 238
187 333 18 75 13 205 -10 293 -19 72 -116 294 -118 269z"/>
<path d="M9236 12150 c-46 -126 -66 -211 -73 -310 -11 -181 30 -315 157 -510
150 -230 183 -345 145 -495 -19 -72 -60 -162 -109 -239 -20 -31 -34 -56 -32
-56 7 0 133 174 159 220 69 122 86 260 44 380 -12 36 -56 116 -96 179 -188
291 -226 447 -181 739 12 78 20 148 18 154 -3 7 -17 -21 -32 -62z"/>
<path d="M4025 12128 c101 -434 68 -568 -230 -932 -187 -229 -161 -403 99
-671 43 -44 64 -62 47 -40 -122 156 -163 239 -169 347 -8 130 42 234 202 423
78 92 139 198 172 295 14 40 19 84 19 160 0 121 -20 196 -90 347 -42 90 -61
116 -50 71z"/>
<path d="M9640 10722 c-31 -39 -65 -67 -105 -89 -78 -41 -115 -83 -115 -128 0
-64 23 -99 107 -162 57 -43 81 -68 89 -93 14 -44 40 -47 37 -5 -3 38 18 60 91
97 89 45 106 66 106 131 0 54 -1 56 -75 138 -54 60 -76 92 -81 118 -3 20 -6
39 -7 43 -1 4 -22 -19 -47 -50z"/>
</g>
</svg>
